<?xml version="1.0" encoding="UTF-8"?>
<svg id="Layer_1" xmlns="http://www.w3.org/2000/svg" viewBox="0 0 62 62">
  <defs>
    <style>
      .cls-1 {
        fill: #f05b71;
      }
    </style>
  </defs>
  <path class="cls-1" d="M45.11,2.38h-28.16c-7.95,0-14.39,6.44-14.39,14.39v2.21c-.02.06-.03.12-.06.18h0s0,.05,0,.07c.02,0,.04,0,.06,0v23.21s-.03.02-.05.03v.06c.02.06.03.12.05.18v2.95c0,7.95,6.44,14.39,14.39,14.39h28.16c7.95,0,14.39-6.44,14.39-14.39v-28.89c0-7.95-6.44-14.39-14.39-14.39ZM52.38,44.5c.02.25.04.49-.14.7h0c-.28,1.5-1.02,2.76-1.97,3.92-.39.71-1,1.21-1.67,1.64-1.12,1.05-2.48,1.61-3.95,1.98-.83.4-1.74.41-2.63.44-1.66.05-3.32.03-4.98,0-.65,0-1.31-.04-1.78-.62,0,0,0,0,0,0h0c-.25-.16-.47-.33-.54-.64-.04-.07-.08-.13-.12-.2-.45-.7-.43-1.41,0-2.12.32-.73.83-1.22,1.65-1.32.37-.25.8-.13,1.19-.14,2.07-.07,4.15.15,6.21-.2h0s0,0,0,0c1.53-.54,2.68-1.55,3.47-2.96.16-.44.31-.89.47-1.33.02-1.15,0-2.29.06-3.44.03-.6-.14-.8-.77-.8-4.91.02-9.81.01-14.72.01-2.85,0-5.7,0-8.55,0-.49,0-.99.01-1.4-.35h0c-.22-.03-.37-.16-.46-.36-.66-.41-.81-1.09-.82-1.77-.02-3.41-.03-6.83,0-10.24.01-1.01.33-1.98.96-2.81.07-.27.24-.48.46-.64,0,0,0,0,0,0,.11-.28.29-.49.54-.63h0c.66-.76,1.48-1.25,2.44-1.51.39-.22.82-.3,1.25-.31,3.47-.02,6.94-.04,10.42-.02,1.21,0,2.13.98,2.21,2.21.1,1.34-.57,2.29-1.82,2.59,0,0,0,0,0,0-.31.25-.69.15-1.03.15-2.8.01-5.6.01-8.39,0-.44,0-.87.03-1.3.14l-.48.36c-.26.56-.29,1.17-.29,1.77-.02,1.94-.02,3.89,0,5.83,0,.21.08.43.12.64h0c7.95,0,15.9,0,23.85,0,.29,0,.61-.07.87.14h0c1.11.28,1.67.94,1.82,2.11.26,1.18.09,2.38.1,3.57.01.92.14,1.85-.11,2.76,0,0,0,0,0,0h0c.13.51-.25.95-.19,1.44ZM52.56,27.74s0,0,0,0c.05.2-.09.32-.18.47,0,.27-.1.5-.33.65h0c-.87,1.02-2,1.21-3.14.53-.55-.21-.86-.62-.99-1.18h0c-.14-.13-.17-.29-.16-.47-.23-.75-.08-1.52-.1-2.27-.04-1.61-.04-3.22-.05-4.83-.21-.89-.51-1.75-.85-2.6-.22-.19-.33-.44-.44-.7h0s0,0,0,0c-.78-.94-1.64-1.78-2.67-2.44-.23-.11-.46-.22-.69-.32h0c-.96-.31-1.93-.54-2.93-.67-6.31,0-12.63,0-18.94,0h0c-1.59.15-3.08.61-4.43,1.47-.15.26-.43.36-.66.51h0c-.43.49-.87.98-1.3,1.47,0,0,0,0,0,0l-.5.85h0c-.36.84-.6,1.72-.82,2.61,0,6.07,0,12.13-.01,18.2,0,1.01.08,2.02.17,3.02,0,0,0,0,0,0h0c.27.71.54,1.42.82,2.13.21.17.29.41.37.65h0c.42.45.84.91,1.26,1.36,0,0,0,0,0,0h0c.34.26.68.52,1.03.78,0,0,0,0,0,0,.98.53,2.01.94,3.1,1.17,1.77,0,3.54.01,5.31.02.27,0,.55-.06.78.14h0c.18,0,.36,0,.5.16,1.01.4,1.42,1.23,1.44,2.23.02.91-.36,1.68-1.26,2.08-.28.38-.72.41-1.1.42-2.07.04-4.15.11-6.22-.14-.1-.01-.2-.08-.3-.12,0,0,0,0,0,0h0c-1.05-.05-2.02-.37-2.94-.84-.27-.02-.5-.13-.69-.31h0c-.8-.29-1.51-.73-2.12-1.32-.25-.12-.46-.3-.63-.52-.73-.54-1.36-1.17-1.84-1.95-.89-1.01-1.5-2.16-1.87-3.45,0,0,0,0,0,0-.37-.84-.58-1.71-.61-2.63-.21-.29-.14-.63-.14-.95,0-6.7,0-13.4,0-20.11,0-.29-.06-.61.15-.87h0c-.01-.75.2-1.45.48-2.13.07-.3.12-.61.32-.86,0,0,0,0,0,0,.22-.62.46-1.24.88-1.77.11-.35.3-.64.62-.85,0,0,0,0,0,0,.41-.78.97-1.42,1.66-1.96.34-.46.79-.79,1.3-1.04,0,0,0,0,0,0,.56-.45,1.12-.88,1.82-1.1.49-.37,1.05-.57,1.65-.65.73-.3,1.49-.48,2.28-.51.26-.22.57-.15.87-.15,6.73,0,13.47,0,20.2,0,.29,0,.61-.05.87.16,0,0,0,0,0,0h0c.52-.02,1,.11,1.48.3.41.05.82.1,1.17.35,0,0,0,0,0,0,1.24.33,2.3.99,3.27,1.79.44.15.73.5,1.01.84h0c.05.05.1.09.15.14,0,0,0,0,0,0,.22.12.39.28.51.51h0c1,.94,1.72,2.08,2.27,3.33.4.53.54,1.16.68,1.79.37,1,.53,2.04.5,3.1,0,0,0,0,0,0,.28,1.4.09,2.81.11,4.21.01.75.15,1.52-.12,2.26Z"/>
</svg>